<?xml version="1.0" encoding="UTF-8" standalone="no"?>
<svg
   xmlns:dc="http://purl.org/dc/elements/1.1/"
   xmlns:cc="http://creativecommons.org/ns#"
   xmlns:rdf="http://www.w3.org/1999/02/22-rdf-syntax-ns#"
   xmlns:svg="http://www.w3.org/2000/svg"
   xmlns="http://www.w3.org/2000/svg"
   viewBox="0 0 337.4592 245.33333"
   height="245.33333"
   width="337.4592"
   xml:space="preserve"
   id="svg2"
   version="1.1"><metadata
     id="metadata8"><rdf:RDF><cc:Work
         rdf:about=""><dc:format>image/svg+xml</dc:format><dc:type
           rdf:resource="http://purl.org/dc/dcmitype/StillImage" /></cc:Work></rdf:RDF></metadata><defs
     id="defs6"><clipPath
       id="clipPath14"
       clipPathUnits="userSpaceOnUse"><path
         id="path12"
         d="M 0,0 H 845 V 184 H 0 Z" /></clipPath><clipPath
       id="clipPath24"
       clipPathUnits="userSpaceOnUse"><path
         id="path22"
         d="M 0,0 H 845 V 184 H 0 Z" /></clipPath></defs><g
     clip-path="url(#clipPath14)"
     transform="matrix(1.3333333,0,0,-1.3333333,0,245.33333)"
     id="g10"><g
       id="g16" /><g
       id="g18"><g
         clip-path="url(#clipPath24)"
         id="g20"><path
           id="path26"
           style="fill:#26b9f1;fill-opacity:1;fill-rule:nonzero;stroke:none"
           d="m 262.956,131.501 h 23.412 l 11.623,-62.042 h 0.328 l 12.106,62.042 h 22.596 L 310.263,48.839 h -25.371 l -21.936,82.662" /><path
           id="path28"
           style="fill:#26b9f1;fill-opacity:1;fill-rule:nonzero;stroke:none"
           d="m 399.702,64.229 c 0,-5.073 0.659,-10.32 1.149,-15.39 h -21.447 l -0.98,10.97 h -0.331 c -4.909,-8.51 -11.619,-12.602 -21.607,-12.602 -16.043,0 -21.929,11.949 -21.929,26.35 0,27.338 21.114,28.479 42.556,28.157 v 6.388 c 0,7.03 -0.98,12.101 -9.328,12.101 -8.02,0 -8.68,-6.052 -8.68,-12.6 h -22.59 c 0,9.989 3.113,16.368 8.512,20.13 5.24,3.931 12.772,5.411 21.609,5.411 29.301,0 33.066,-12.602 33.066,-27.668 z m -42.561,10.307 c 0,-5.888 0.984,-13.095 8.515,-13.095 13.583,0 11.457,18.337 11.457,27.343 -11.457,-0.491 -19.972,0.489 -19.972,-14.248 z m -11.948,88.561 H 363.36 V 145.42 h -18.167 z m 28.975,0 h 18.165 V 145.42 h -18.165 z" /><path
           id="path30"
           style="fill:#26b9f1;fill-opacity:1;fill-rule:nonzero;stroke:none"
           d="m 430.328,75.358 c -0.161,-3.761 0,-7.362 1.149,-9.989 1.311,-2.621 3.766,-3.928 8.35,-3.928 4.58,0 8.508,2.949 8.508,8.509 0,17.525 -40.595,13.596 -40.595,39.946 0,17.837 17.681,23.248 32.575,23.248 15.716,0 29.958,-7.532 28.648,-25.37 h -22.591 c 0,5.727 -0.652,9.167 -2.29,10.636 -1.475,1.466 -3.441,1.793 -5.895,1.793 -5.071,0 -7.859,-3.262 -7.859,-8.839 0,-13.091 40.598,-12.438 40.598,-38.954 0,-14.409 -11.787,-25.203 -30.938,-25.203 -20.134,0 -33.553,5.072 -32.248,28.151 h 22.588" /><path
           id="path32"
           style="fill:#26b9f1;fill-opacity:1;fill-rule:nonzero;stroke:none"
           d="m 473.232,131.501 h 9.334 v 13.092 l 23.08,10.317 v -23.409 h 11.949 V 117.264 H 505.646 V 73.066 c 0,-6.217 -0.163,-10.318 7.368,-10.318 1.469,0 2.944,0 4.085,0.339 V 48.839 c -3.105,-0.329 -6.373,-0.818 -11.944,-0.818 -19.97,0 -22.589,13.256 -22.589,18.329 v 50.914 h -9.334 v 14.237" /><path
           id="path34"
           style="fill:#26b9f1;fill-opacity:1;fill-rule:nonzero;stroke:none"
           d="m 517.262,131.501 h 9.332 v 13.092 l 23.076,10.317 v -23.409 h 11.95 V 117.264 H 549.67 V 73.066 c 0,-6.217 -0.161,-10.318 7.371,-10.318 1.468,0 2.943,0 4.089,0.339 V 48.839 c -3.112,-0.329 -6.388,-0.818 -11.949,-0.818 -19.97,0 -22.587,13.256 -22.587,18.329 v 50.914 h -9.332 v 14.237" /><path
           id="path36"
           style="fill:#26b9f1;fill-opacity:1;fill-rule:nonzero;stroke:none"
           d="m 592.49,131.501 v -10.637 h 0.327 c 4.259,9.495 12.116,12.28 21.444,12.28 v -20.622 c -20.298,1.302 -20.625,-10.486 -20.625,-18.667 V 48.839 h -23.082 v 82.662 h 21.936" /><path
           id="path38"
           style="fill:#26b9f1;fill-opacity:1;fill-rule:nonzero;stroke:none"
           d="m 637.663,74.536 c 0,-5.888 0.988,-13.095 8.525,-13.095 13.579,0 11.449,18.337 11.449,27.343 -11.449,-0.491 -19.974,0.489 -19.974,-14.248 z m 42.565,-10.307 c 0,-5.073 0.655,-10.32 1.147,-15.39 h -21.447 l -0.977,10.97 h -0.325 C 653.717,51.299 647,47.207 637.01,47.207 c -16.047,0 -21.929,11.949 -21.929,26.35 0,27.338 21.11,28.479 42.556,28.157 v 6.388 c 0,7.03 -0.979,12.101 -9.328,12.101 -8.02,0 -8.678,-6.052 -8.678,-12.6 h -22.58 c 0,9.989 3.101,16.368 8.509,20.13 5.233,3.931 12.769,5.411 21.603,5.411 29.303,0 33.065,-12.602 33.065,-27.668 V 64.229" /><path
           id="path40"
           style="fill:#26b9f1;fill-opacity:1;fill-rule:nonzero;stroke:none"
           d="m 728.794,144.866 c -9.838,0.064 -10.939,-1.086 -10.93,-7.379 l -0.009,-5.921 h 10.939 V 116.603 H 717.855 V 48.839 h -23.128 v 67.764 h -10.403 v 14.963 h 10.403 c -0.161,23.738 -1.903,32.269 26.254,32.269 2.782,0 5.035,-0.17 7.813,-0.334 v -18.635" /><path
           id="path42"
           style="fill:#26b9f1;fill-opacity:1;fill-rule:nonzero;stroke:none"
           d="m 738.253,163.023 h 23.082 v -18.167 h -23.082 z m 0,-31.522 h 23.082 V 48.839 h -23.082 z" /><path
           id="path44"
           style="fill:#26b9f1;fill-opacity:1;fill-rule:nonzero;stroke:none"
           d="m 773.365,48.839 -0.121,114.315 h 23.218 l -0.027,-66.512 h 0.33 l 20.787,34.859 h 24.067 L 818.214,94.668 844.24,48.839 h -26.026 l -21.449,45.016 h -0.33 V 48.839 h -23.07" /><path
           id="path46"
           style="fill:#26b9f1;fill-opacity:1;fill-rule:nonzero;stroke:none"
           d="m 80.057,146.229 c 11.775,13.06 32.586,28.081 65.331,26.423 0,0 -0.197,-24.605 -13.013,-53.089 -18.252,12.691 -36.026,21.135 -52.318,26.666 z m 172.309,-14.273 c -52.596,-3.404 -87.915,-39.06 -87.915,-39.06 -7.33,7.18 -14.672,13.559 -21.97,19.221 7.488,16.116 13.079,35.545 14.813,58.848 0,0 36.695,-7.292 53.968,-42.252 3.69,0.885 7.539,1.636 11.531,2.233 -14.669,31.304 -46.453,52.995 -83.309,52.995 -28.849,0 -54.566,-13.303 -71.427,-34.081 C 28.326,160.517 0,154.345 0,154.345 122.89,129.335 164.052,26.713 164.052,26.713 c 17.453,41.258 37.393,66.783 53.91,82.344 1.056,-5.05 1.763,-10.48 2.003,-16.358 0,0 1.636,-29.101 -19.003,-51.937 0,0 -21.697,-29.039 -61.407,-28.539 0,0 -37.633,-2.319 -63.782,31.271 0,0 22.476,9.154 43.908,33.568 -3.028,2.858 -6.058,5.627 -9.088,8.302 -10.357,-11.873 -23.789,-23 -41.223,-31.848 0,0 -18.932,29.975 -5.008,67.035 -3.407,2.222 -6.737,4.335 -9.975,6.324 C 49.963,116.102 47.508,104.334 47.508,91.971 47.508,41.188 88.688,0 139.484,0 c 50.794,0 91.968,41.188 91.968,91.971 0,8.893 -1.273,17.468 -3.634,25.585 14.508,11.411 24.548,14.4 24.548,14.4" /></g></g></g></svg>